<svg id="svg" version="1.1" xmlns="http://www.w3.org/2000/svg" xmlns:xlink="http://www.w3.org/1999/xlink" width="400" height="405.2631578947368" viewBox="0, 0, 400,405.2631578947368"><g id="svgg"><path id="path0" d="M0.000 202.600 L 0.000 405.200 200.000 405.200 L 400.000 405.200 400.000 202.600 L 400.000 0.000 200.000 0.000 L 0.000 0.000 0.000 202.600 M221.427 89.987 C 221.639 90.199,224.600 90.493,228.007 90.640 C 231.594 90.795,234.621 91.116,235.200 91.404 C 236.431 92.017,239.674 92.800,240.977 92.800 C 241.508 92.800,242.215 93.072,242.547 93.404 C 242.880 93.737,244.017 94.124,245.076 94.265 C 246.134 94.406,247.429 94.854,247.954 95.261 C 248.479 95.667,249.389 96.000,249.976 96.000 C 250.564 96.000,251.655 96.450,252.400 97.000 C 253.145 97.550,254.007 98.000,254.315 98.000 C 254.622 98.000,255.331 98.360,255.891 98.800 C 256.450 99.240,257.219 99.600,257.600 99.600 C 257.981 99.600,258.721 99.929,259.246 100.332 C 259.771 100.734,260.470 101.188,260.800 101.339 C 261.130 101.490,262.120 102.157,263.000 102.821 C 263.880 103.484,265.273 104.472,266.095 105.016 C 267.965 106.252,269.579 107.635,272.172 110.226 C 275.832 113.883,280.536 119.734,280.997 121.202 C 281.169 121.751,281.645 122.629,282.055 123.154 C 282.465 123.679,282.800 124.448,282.800 124.863 C 282.800 125.278,283.496 126.379,284.346 127.309 C 285.502 128.573,285.963 129.479,286.170 130.895 C 286.323 131.938,286.665 133.018,286.931 133.295 C 287.197 133.573,287.632 134.857,287.896 136.148 C 288.161 137.439,288.631 138.699,288.940 138.948 C 290.552 140.245,290.602 167.030,288.996 168.805 C 288.668 169.167,288.392 170.079,288.383 170.831 C 288.356 172.924,287.743 175.664,287.231 175.981 C 286.979 176.136,286.626 177.196,286.446 178.335 C 286.266 179.474,285.846 180.720,285.513 181.103 C 285.180 181.486,284.793 182.282,284.653 182.872 C 284.513 183.462,284.129 184.214,283.799 184.543 C 283.470 184.873,283.200 185.298,283.200 185.487 C 283.200 185.676,282.667 186.453,282.016 187.215 C 281.365 187.977,280.825 188.782,280.816 189.004 C 280.768 190.199,269.203 202.000,268.080 202.000 C 267.831 202.000,266.715 202.810,265.600 203.800 C 264.485 204.790,263.232 205.600,262.815 205.600 C 262.398 205.600,261.780 205.877,261.440 206.217 C 261.101 206.556,260.233 207.035,259.512 207.281 C 258.790 207.527,257.771 208.059,257.246 208.464 C 256.721 208.869,255.956 209.200,255.546 209.200 C 253.904 209.200,255.239 210.895,258.200 212.569 C 262.133 214.793,265.929 219.145,269.042 225.000 C 269.627 226.100,270.622 227.591,271.253 228.314 C 271.884 229.037,272.404 230.027,272.409 230.514 C 272.414 231.001,272.774 232.185,273.209 233.144 C 273.644 234.103,274.000 235.560,274.000 236.382 C 274.000 237.267,274.304 238.229,274.745 238.737 C 275.155 239.210,275.606 240.439,275.747 241.469 C 275.889 242.499,276.264 243.629,276.582 243.980 C 276.899 244.331,277.282 245.874,277.432 247.409 C 277.582 248.944,277.920 250.470,278.183 250.800 C 278.445 251.130,278.899 252.660,279.191 254.200 C 279.482 255.740,279.944 257.360,280.218 257.800 C 280.492 258.240,280.841 259.664,280.994 260.963 C 281.148 262.263,281.517 263.883,281.816 264.563 C 282.114 265.244,282.468 266.650,282.602 267.689 C 283.031 271.012,283.607 271.200,293.372 271.200 L 301.620 271.200 302.027 272.270 C 302.698 274.036,302.345 314.503,301.651 315.339 C 301.149 315.944,298.374 316.000,269.132 316.000 L 237.162 316.000 236.181 314.942 C 235.641 314.359,235.195 313.504,235.189 313.042 C 235.153 310.196,234.381 304.723,233.879 303.749 C 233.553 303.117,233.155 300.800,232.994 298.600 C 232.833 296.400,232.467 294.140,232.181 293.578 C 231.894 293.015,231.534 290.765,231.380 288.578 C 231.225 286.390,230.872 284.042,230.595 283.359 C 230.317 282.677,229.868 280.157,229.596 277.759 C 229.325 275.362,228.870 272.860,228.585 272.200 C 228.300 271.540,227.951 269.290,227.808 267.200 C 227.666 265.110,227.304 262.770,227.003 262.000 C 226.703 261.230,226.268 259.003,226.037 257.051 C 225.805 255.099,225.431 253.278,225.205 253.006 C 224.978 252.733,224.599 251.450,224.362 250.155 C 224.124 248.860,223.676 247.516,223.365 247.169 C 223.054 246.821,222.800 246.088,222.800 245.538 C 222.800 244.989,222.350 244.117,221.800 243.600 C 221.250 243.083,220.800 242.396,220.800 242.072 C 220.800 241.748,220.125 240.500,219.300 239.300 C 218.475 238.099,217.620 236.817,217.400 236.451 C 216.159 234.385,210.767 230.576,208.299 230.022 C 207.411 229.822,206.575 229.483,206.442 229.268 C 206.122 228.751,202.202 227.663,198.112 226.956 C 195.657 226.532,191.805 226.415,182.912 226.494 L 171.000 226.600 170.897 250.079 L 170.794 273.559 180.232 273.679 L 189.671 273.800 190.646 274.935 L 191.622 276.070 191.511 295.468 C 191.404 314.139,191.371 314.886,190.624 315.432 C 189.563 316.208,98.853 316.293,98.080 315.520 C 97.135 314.575,97.418 274.526,98.374 274.014 C 98.851 273.758,103.214 273.600,109.774 273.600 L 120.400 273.600 120.400 202.800 L 120.400 132.000 109.774 132.000 C 103.214 132.000,98.851 131.842,98.374 131.586 C 97.400 131.065,97.132 90.255,98.100 89.865 C 99.080 89.470,221.030 89.590,221.427 89.987 M170.897 158.476 L 171.000 185.000 187.200 185.117 C 196.856 185.187,203.966 185.077,204.800 184.845 C 205.570 184.632,208.270 184.241,210.800 183.977 C 213.330 183.713,215.670 183.274,216.000 183.002 C 216.330 182.730,217.490 182.392,218.577 182.251 C 219.708 182.104,220.918 181.653,221.403 181.197 C 221.870 180.759,222.491 180.400,222.784 180.400 C 223.476 180.400,227.600 177.665,227.600 177.206 C 227.600 177.012,227.960 176.740,228.400 176.600 C 228.840 176.460,229.200 176.071,229.200 175.736 C 229.200 175.400,229.560 175.031,230.000 174.916 C 230.440 174.801,230.800 174.496,230.800 174.238 C 230.800 173.981,231.333 173.147,231.984 172.385 C 232.635 171.623,233.175 170.797,233.184 170.549 C 233.193 170.301,233.461 169.881,233.780 169.616 C 234.100 169.351,234.463 168.294,234.589 167.267 C 234.714 166.240,235.100 164.489,235.447 163.375 C 236.096 161.296,236.069 159.941,235.250 153.433 C 234.989 151.354,234.568 149.883,234.026 149.150 C 233.572 148.535,233.200 147.641,233.200 147.162 C 233.200 146.683,232.750 145.875,232.200 145.365 C 231.650 144.855,231.200 144.090,231.200 143.665 C 231.200 142.673,226.427 138.189,224.525 137.394 C 223.731 137.063,222.884 136.546,222.641 136.245 C 222.398 135.945,221.582 135.584,220.826 135.445 C 220.071 135.305,219.161 134.927,218.805 134.605 C 218.449 134.283,216.971 133.851,215.520 133.646 C 214.069 133.440,212.458 133.031,211.941 132.736 C 211.197 132.312,206.785 132.174,190.897 132.076 L 170.794 131.953 170.897 158.476 " stroke="none" fill="#fcfcfc" fill-rule="evenodd"></path><path id="path1" d="M98.896 110.688 L 99.000 129.800 109.761 129.907 C 119.424 130.002,120.575 130.084,121.048 130.707 C 121.806 131.704,121.857 273.901,121.100 274.920 C 120.656 275.518,119.383 275.605,109.800 275.697 L 99.000 275.800 99.000 294.800 L 99.000 313.800 143.757 313.902 C 176.498 313.976,188.660 313.882,189.057 313.553 C 189.940 312.820,189.853 276.183,188.967 275.843 C 188.619 275.709,184.306 275.600,179.381 275.600 C 170.939 275.600,170.405 275.556,170.014 274.826 C 169.101 273.120,169.480 226.279,170.416 225.275 C 171.436 224.180,195.063 223.870,195.951 224.941 C 196.233 225.281,197.698 225.568,199.900 225.715 C 203.264 225.939,207.842 227.574,208.617 228.828 C 208.744 229.033,209.363 229.200,209.993 229.200 C 210.631 229.200,211.665 229.643,212.327 230.200 C 212.981 230.750,213.719 231.200,213.967 231.200 C 214.643 231.200,218.000 234.417,218.000 235.065 C 218.000 235.375,218.810 236.474,219.800 237.508 C 220.852 238.606,221.600 239.763,221.600 240.293 C 221.600 240.821,222.246 241.829,223.143 242.700 C 224.476 243.997,224.725 244.526,224.979 246.600 C 225.141 247.920,225.553 249.313,225.895 249.696 C 226.252 250.096,226.626 251.543,226.773 253.096 C 226.913 254.583,227.319 256.250,227.674 256.800 C 228.110 257.475,228.411 259.230,228.599 262.200 C 228.776 264.977,229.079 266.825,229.421 267.211 C 229.765 267.599,230.060 269.423,230.228 272.211 C 230.410 275.228,230.697 276.913,231.146 277.600 C 231.611 278.312,231.858 279.877,232.000 283.029 C 232.154 286.430,232.354 287.612,232.864 288.122 C 233.372 288.629,233.597 289.925,233.816 293.593 C 233.974 296.237,234.242 298.400,234.412 298.400 C 235.079 298.400,235.600 301.088,235.600 304.528 C 235.600 307.277,235.753 308.306,236.241 308.845 C 236.593 309.235,236.998 310.509,237.141 311.677 L 237.400 313.800 269.200 313.800 L 301.000 313.800 301.104 293.100 L 301.207 272.400 292.232 272.400 C 282.540 272.400,282.000 272.286,282.000 270.233 C 282.000 269.733,281.664 269.020,281.254 268.649 C 280.713 268.160,280.433 267.146,280.236 264.969 C 280.037 262.778,279.752 261.752,279.182 261.182 C 278.560 260.560,278.400 259.846,278.400 257.696 C 278.400 255.501,278.261 254.906,277.662 254.531 C 277.091 254.175,276.864 253.363,276.660 250.950 C 276.492 248.964,276.198 247.719,275.851 247.524 C 275.537 247.349,275.185 246.154,275.023 244.710 C 274.865 243.311,274.451 241.880,274.087 241.477 C 273.675 241.021,273.374 239.802,273.270 238.166 C 273.146 236.216,272.931 235.484,272.400 235.200 C 271.917 234.942,271.605 234.105,271.411 232.546 C 271.166 230.587,270.907 230.064,269.563 228.811 C 268.504 227.823,268.000 227.011,268.000 226.291 C 268.000 225.653,267.693 225.064,267.233 224.817 C 266.810 224.591,266.344 223.857,266.197 223.186 C 266.049 222.514,265.540 221.544,265.064 221.028 C 261.788 217.478,258.654 214.400,258.314 214.400 C 257.667 214.400,254.000 211.904,254.000 211.464 C 254.000 211.244,253.705 210.737,253.345 210.339 C 252.647 209.568,253.145 208.400,254.171 208.400 C 254.432 208.400,255.255 207.950,256.000 207.400 C 256.745 206.850,257.727 206.400,258.181 206.400 C 258.636 206.400,259.232 206.040,259.507 205.600 C 259.816 205.106,260.440 204.800,261.138 204.800 C 261.963 204.800,262.728 204.312,263.957 203.000 C 264.914 201.979,266.006 201.200,266.480 201.200 C 266.940 201.200,267.695 200.827,268.158 200.372 C 268.621 199.916,270.755 197.852,272.900 195.784 C 275.045 193.716,276.800 191.845,276.800 191.626 C 276.800 191.407,277.148 191.042,277.573 190.814 C 277.998 190.587,278.472 189.996,278.627 189.500 C 278.781 189.005,279.604 187.765,280.454 186.744 C 281.304 185.724,282.000 184.713,282.000 184.498 C 282.000 184.284,282.333 183.679,282.739 183.154 C 283.145 182.629,283.596 181.718,283.740 181.128 C 283.883 180.538,284.256 179.801,284.567 179.490 C 284.878 179.179,285.265 178.043,285.426 176.965 C 285.588 175.887,286.035 174.554,286.420 174.003 C 286.896 173.321,287.200 171.854,287.368 169.422 C 287.528 167.127,287.829 165.610,288.208 165.191 C 289.070 164.239,289.088 145.937,288.228 145.223 C 287.857 144.915,287.558 143.500,287.378 141.191 C 287.164 138.462,286.925 137.475,286.350 136.954 C 285.843 136.496,285.600 135.730,285.600 134.592 C 285.600 133.514,285.312 132.542,284.800 131.891 C 284.360 131.331,284.000 130.428,284.000 129.883 C 284.000 129.267,283.621 128.644,283.000 128.237 C 282.308 127.784,282.000 127.219,282.000 126.405 C 282.000 125.662,281.722 125.080,281.247 124.825 C 280.832 124.603,280.376 123.800,280.234 123.039 C 280.091 122.279,279.414 121.059,278.728 120.329 C 278.043 119.598,277.233 118.407,276.928 117.683 C 276.624 116.958,276.117 116.266,275.803 116.146 C 275.488 116.025,275.121 115.583,274.988 115.163 C 274.855 114.743,274.483 114.400,274.160 114.400 C 273.838 114.400,273.454 114.085,273.306 113.700 C 272.958 112.793,269.607 109.442,268.700 109.094 C 268.315 108.946,268.000 108.586,268.000 108.293 C 268.000 108.000,267.370 107.533,266.600 107.254 C 265.830 106.976,265.200 106.592,265.200 106.401 C 265.200 106.210,264.885 105.953,264.500 105.830 C 264.115 105.707,263.026 104.897,262.079 104.030 C 261.133 103.164,259.826 102.338,259.176 102.195 C 258.525 102.052,257.809 101.590,257.583 101.167 C 257.320 100.677,256.746 100.400,255.989 100.400 C 255.240 100.400,254.624 100.107,254.307 99.600 C 254.006 99.118,253.374 98.800,252.719 98.800 C 252.121 98.800,251.309 98.460,250.916 98.046 C 250.522 97.631,249.447 97.167,248.526 97.015 C 247.605 96.863,246.476 96.413,246.018 96.015 C 245.464 95.535,244.187 95.199,242.215 95.014 C 240.438 94.848,239.055 94.508,238.773 94.168 C 238.514 93.856,237.877 93.600,237.357 93.600 C 236.059 93.600,232.773 92.803,231.800 92.253 C 231.216 91.922,213.176 91.770,164.896 91.688 L 98.792 91.575 98.896 110.688 M205.021 130.381 C 205.231 130.591,207.382 130.883,209.801 131.031 C 213.027 131.229,214.532 131.500,215.447 132.050 C 216.133 132.463,217.324 132.800,218.093 132.800 C 218.886 132.800,219.932 133.146,220.509 133.600 C 221.069 134.040,221.778 134.400,222.085 134.400 C 222.393 134.400,223.255 134.850,224.000 135.400 C 224.745 135.950,225.670 136.400,226.055 136.400 C 226.917 136.400,232.000 141.409,232.000 142.258 C 232.000 142.595,232.810 143.659,233.800 144.621 C 235.440 146.215,235.600 146.541,235.600 148.289 C 235.600 149.774,235.781 150.320,236.400 150.707 C 237.618 151.468,237.618 164.361,236.400 166.200 C 235.963 166.860,235.604 168.020,235.603 168.778 C 235.598 171.251,226.817 181.200,224.639 181.200 C 224.136 181.200,223.398 181.560,223.000 182.000 C 222.602 182.440,221.861 182.800,221.354 182.800 C 220.846 182.800,220.106 183.149,219.709 183.575 C 219.167 184.157,218.192 184.419,215.794 184.626 C 213.754 184.803,212.332 185.137,211.858 185.551 C 210.909 186.381,171.131 186.772,170.154 185.962 C 169.235 185.199,169.340 131.751,170.262 130.731 C 171.012 129.903,204.208 129.568,205.021 130.381 " stroke="none" fill="#149c9c" fill-rule="evenodd"></path><path id="path2" d="M98.414 91.574 C 97.768 92.781,97.864 128.709,98.518 130.000 L 99.023 131.000 109.792 131.107 C 117.796 131.186,120.642 131.340,120.874 131.707 C 121.368 132.483,121.280 273.103,120.786 274.026 C 120.392 274.762,119.840 274.800,109.600 274.800 C 99.231 274.800,98.812 274.830,98.399 275.601 C 97.890 276.552,98.009 313.905,98.524 314.700 C 98.779 315.095,108.316 315.200,143.995 315.200 L 189.142 315.200 189.971 314.146 C 190.783 313.114,190.800 312.703,190.800 294.556 L 190.800 276.021 189.620 275.410 C 188.667 274.917,186.745 274.800,179.634 274.800 C 171.337 274.800,170.804 274.755,170.414 274.026 C 169.756 272.796,169.850 227.158,170.513 226.251 C 170.989 225.600,171.978 225.563,184.213 225.735 C 200.165 225.959,204.181 226.520,207.755 229.023 C 208.208 229.340,208.920 229.600,209.337 229.600 C 211.056 229.600,216.132 233.610,218.503 236.842 C 220.770 239.931,221.200 240.606,221.200 241.077 C 221.200 241.363,221.806 242.273,222.546 243.099 C 223.286 243.924,223.986 245.140,224.101 245.800 C 224.217 246.460,224.611 247.990,224.979 249.200 C 225.346 250.410,225.828 252.210,226.049 253.200 C 226.270 254.190,226.702 255.900,227.007 257.000 C 227.313 258.100,227.751 260.862,227.981 263.137 C 228.211 265.413,228.514 267.460,228.654 267.687 C 229.036 268.306,229.983 273.984,229.992 275.713 C 229.996 276.545,230.261 277.849,230.579 278.611 C 230.897 279.374,231.281 281.573,231.431 283.499 C 231.580 285.424,231.927 287.720,232.201 288.600 C 232.475 289.480,232.911 291.820,233.171 293.800 C 233.643 297.410,234.148 300.347,234.833 303.477 C 235.035 304.400,235.200 305.890,235.200 306.790 C 235.200 307.690,235.470 309.072,235.800 309.862 C 236.130 310.651,236.400 311.776,236.400 312.360 C 236.400 312.944,236.680 313.822,237.023 314.311 L 237.645 315.200 269.405 315.200 L 301.164 315.200 301.396 313.900 C 301.524 313.185,301.578 303.510,301.515 292.400 L 301.400 272.200 292.467 272.000 C 282.939 271.787,282.400 271.659,282.400 269.613 C 282.400 269.264,282.148 268.618,281.840 268.178 C 281.532 267.739,281.152 266.304,280.995 264.989 C 280.838 263.675,280.479 262.060,280.197 261.400 C 279.915 260.740,279.461 259.030,279.190 257.600 C 278.918 256.170,278.461 254.619,278.174 254.154 C 277.887 253.688,277.527 252.158,277.374 250.754 C 277.222 249.349,276.870 247.750,276.593 247.200 C 276.316 246.650,275.869 245.210,275.599 244.000 C 275.330 242.790,274.770 241.012,274.355 240.049 C 273.940 239.086,273.600 237.731,273.600 237.038 C 273.600 236.345,273.327 235.389,272.994 234.913 C 272.661 234.437,272.208 233.097,271.988 231.934 C 271.699 230.415,271.207 229.423,270.237 228.410 C 269.494 227.634,268.753 226.550,268.588 226.000 C 268.424 225.450,267.955 224.571,267.545 224.046 C 267.135 223.521,266.800 222.865,266.800 222.587 C 266.800 221.302,260.230 214.694,257.155 212.887 C 253.229 210.579,253.164 209.643,256.800 207.792 C 258.010 207.176,259.270 206.518,259.600 206.331 C 259.930 206.143,260.920 205.657,261.800 205.250 C 262.680 204.843,264.182 203.855,265.138 203.055 C 266.094 202.255,267.136 201.600,267.454 201.600 C 268.370 201.600,278.125 191.651,279.808 189.000 C 280.646 187.680,281.461 186.510,281.619 186.400 C 281.777 186.290,282.573 184.940,283.388 183.400 C 284.203 181.860,285.026 180.411,285.217 180.180 C 285.408 179.949,285.691 178.959,285.846 177.980 C 286.000 177.001,286.445 175.570,286.835 174.800 C 287.225 174.030,287.669 172.320,287.821 171.000 C 287.974 169.680,288.257 168.401,288.451 168.157 C 290.415 165.688,289.470 141.690,287.228 137.057 C 286.772 136.117,286.396 134.999,286.391 134.574 C 286.386 134.148,286.026 133.015,285.591 132.056 C 285.156 131.097,284.800 130.000,284.800 129.618 C 284.800 129.236,284.426 128.585,283.968 128.171 C 283.510 127.757,282.406 125.889,281.514 124.020 C 279.821 120.472,278.547 118.422,277.700 117.880 C 277.425 117.704,277.200 117.335,277.200 117.060 C 277.200 116.108,268.586 107.745,265.200 105.410 C 263.330 104.121,261.695 102.908,261.566 102.716 C 261.155 102.102,249.513 96.400,248.671 96.400 C 248.227 96.400,247.557 96.123,247.182 95.784 C 246.808 95.445,245.624 95.027,244.551 94.855 C 243.478 94.683,242.240 94.352,241.800 94.119 C 240.820 93.599,237.502 92.800,236.326 92.800 C 235.851 92.800,235.162 92.527,234.793 92.194 C 232.999 90.570,99.277 89.962,98.414 91.574 M231.800 92.253 C 232.773 92.803,236.059 93.600,237.357 93.600 C 237.877 93.600,238.514 93.856,238.773 94.168 C 239.055 94.508,240.438 94.848,242.215 95.014 C 244.187 95.199,245.464 95.535,246.018 96.015 C 246.476 96.413,247.605 96.863,248.526 97.015 C 249.447 97.167,250.522 97.631,250.916 98.046 C 251.309 98.460,252.121 98.800,252.719 98.800 C 253.374 98.800,254.006 99.118,254.307 99.600 C 254.624 100.107,255.240 100.400,255.989 100.400 C 256.746 100.400,257.320 100.677,257.583 101.167 C 257.809 101.590,258.525 102.052,259.176 102.195 C 259.826 102.338,261.133 103.164,262.079 104.030 C 263.026 104.897,264.115 105.707,264.500 105.830 C 264.885 105.953,265.200 106.210,265.200 106.401 C 265.200 106.592,265.830 106.976,266.600 107.254 C 267.370 107.533,268.000 108.000,268.000 108.293 C 268.000 108.586,268.315 108.946,268.700 109.094 C 269.607 109.442,272.958 112.793,273.306 113.700 C 273.454 114.085,273.838 114.400,274.160 114.400 C 274.483 114.400,274.855 114.743,274.988 115.163 C 275.121 115.583,275.488 116.025,275.803 116.146 C 276.117 116.266,276.624 116.958,276.928 117.683 C 277.233 118.407,278.043 119.598,278.728 120.329 C 279.414 121.059,280.091 122.279,280.234 123.039 C 280.376 123.800,280.832 124.603,281.247 124.825 C 281.722 125.080,282.000 125.662,282.000 126.405 C 282.000 127.219,282.308 127.784,283.000 128.237 C 283.621 128.644,284.000 129.267,284.000 129.883 C 284.000 130.428,284.360 131.331,284.800 131.891 C 285.312 132.542,285.600 133.514,285.600 134.592 C 285.600 135.730,285.843 136.496,286.350 136.954 C 286.925 137.475,287.164 138.462,287.378 141.191 C 287.558 143.500,287.857 144.915,288.228 145.223 C 289.088 145.937,289.070 164.239,288.208 165.191 C 287.829 165.610,287.528 167.127,287.368 169.422 C 287.200 171.854,286.896 173.321,286.420 174.003 C 286.035 174.554,285.588 175.887,285.426 176.965 C 285.265 178.043,284.878 179.179,284.567 179.490 C 284.256 179.801,283.883 180.538,283.740 181.128 C 283.596 181.718,283.145 182.629,282.739 183.154 C 282.333 183.679,282.000 184.284,282.000 184.498 C 282.000 184.713,281.304 185.724,280.454 186.744 C 279.604 187.765,278.781 189.005,278.627 189.500 C 278.472 189.996,277.998 190.587,277.573 190.814 C 277.148 191.042,276.800 191.407,276.800 191.626 C 276.800 191.845,275.045 193.716,272.900 195.784 C 270.755 197.852,268.621 199.916,268.158 200.372 C 267.695 200.827,266.940 201.200,266.480 201.200 C 266.006 201.200,264.914 201.979,263.957 203.000 C 262.728 204.312,261.963 204.800,261.138 204.800 C 260.440 204.800,259.816 205.106,259.507 205.600 C 259.232 206.040,258.636 206.400,258.181 206.400 C 257.727 206.400,256.745 206.850,256.000 207.400 C 255.255 207.950,254.432 208.400,254.171 208.400 C 253.145 208.400,252.647 209.568,253.345 210.339 C 253.705 210.737,254.000 211.244,254.000 211.464 C 254.000 211.904,257.667 214.400,258.314 214.400 C 258.654 214.400,261.788 217.478,265.064 221.028 C 265.540 221.544,266.049 222.514,266.197 223.186 C 266.344 223.857,266.810 224.591,267.233 224.817 C 267.693 225.064,268.000 225.653,268.000 226.291 C 268.000 227.011,268.504 227.823,269.563 228.811 C 270.907 230.064,271.166 230.587,271.411 232.546 C 271.605 234.105,271.917 234.942,272.400 235.200 C 272.931 235.484,273.146 236.216,273.270 238.166 C 273.374 239.802,273.675 241.021,274.087 241.477 C 274.451 241.880,274.865 243.311,275.023 244.710 C 275.185 246.154,275.537 247.349,275.851 247.524 C 276.198 247.719,276.492 248.964,276.660 250.950 C 276.864 253.363,277.091 254.175,277.662 254.531 C 278.261 254.906,278.400 255.501,278.400 257.696 C 278.400 259.846,278.560 260.560,279.182 261.182 C 279.752 261.752,280.037 262.778,280.236 264.969 C 280.433 267.146,280.713 268.160,281.254 268.649 C 281.664 269.020,282.000 269.733,282.000 270.233 C 282.000 272.286,282.540 272.400,292.232 272.400 L 301.207 272.400 301.104 293.100 L 301.000 313.800 269.200 313.800 L 237.400 313.800 237.141 311.677 C 236.998 310.509,236.593 309.235,236.241 308.845 C 235.753 308.306,235.600 307.277,235.600 304.528 C 235.600 301.088,235.079 298.400,234.412 298.400 C 234.242 298.400,233.974 296.237,233.816 293.593 C 233.597 289.925,233.372 288.629,232.864 288.122 C 232.354 287.612,232.154 286.430,232.000 283.029 C 231.858 279.877,231.611 278.312,231.146 277.600 C 230.697 276.913,230.410 275.228,230.228 272.211 C 230.060 269.423,229.765 267.599,229.421 267.211 C 229.079 266.825,228.776 264.977,228.599 262.200 C 228.411 259.230,228.110 257.475,227.674 256.800 C 227.319 256.250,226.913 254.583,226.773 253.096 C 226.626 251.543,226.252 250.096,225.895 249.696 C 225.553 249.313,225.141 247.920,224.979 246.600 C 224.725 244.526,224.476 243.997,223.143 242.700 C 222.246 241.829,221.600 240.821,221.600 240.293 C 221.600 239.763,220.852 238.606,219.800 237.508 C 218.810 236.474,218.000 235.375,218.000 235.065 C 218.000 234.417,214.643 231.200,213.967 231.200 C 213.719 231.200,212.981 230.750,212.327 230.200 C 211.665 229.643,210.631 229.200,209.993 229.200 C 209.363 229.200,208.744 229.033,208.617 228.828 C 207.842 227.574,203.264 225.939,199.900 225.715 C 197.698 225.568,196.233 225.281,195.951 224.941 C 195.063 223.870,171.436 224.180,170.416 225.275 C 169.480 226.279,169.101 273.120,170.014 274.826 C 170.405 275.556,170.939 275.600,179.381 275.600 C 184.306 275.600,188.619 275.709,188.967 275.843 C 189.853 276.183,189.940 312.820,189.057 313.553 C 188.660 313.882,176.498 313.976,143.757 313.902 L 99.000 313.800 99.000 294.800 L 99.000 275.800 109.800 275.697 C 119.383 275.605,120.656 275.518,121.100 274.920 C 121.857 273.901,121.806 131.704,121.048 130.707 C 120.575 130.084,119.424 130.002,109.761 129.907 L 99.000 129.800 98.896 110.688 L 98.792 91.575 164.896 91.688 C 213.176 91.770,231.216 91.922,231.800 92.253 M170.262 130.731 C 169.340 131.751,169.235 185.199,170.154 185.962 C 171.131 186.772,210.909 186.381,211.858 185.551 C 212.332 185.137,213.754 184.803,215.794 184.626 C 218.192 184.419,219.167 184.157,219.709 183.575 C 220.106 183.149,220.846 182.800,221.354 182.800 C 221.861 182.800,222.602 182.440,223.000 182.000 C 223.398 181.560,224.136 181.200,224.639 181.200 C 226.817 181.200,235.598 171.251,235.603 168.778 C 235.604 168.020,235.963 166.860,236.400 166.200 C 237.618 164.361,237.618 151.468,236.400 150.707 C 235.781 150.320,235.600 149.774,235.600 148.289 C 235.600 146.541,235.440 146.215,233.800 144.621 C 232.810 143.659,232.000 142.595,232.000 142.258 C 232.000 141.409,226.917 136.400,226.055 136.400 C 225.670 136.400,224.745 135.950,224.000 135.400 C 223.255 134.850,222.393 134.400,222.085 134.400 C 221.778 134.400,221.069 134.040,220.509 133.600 C 219.932 133.146,218.886 132.800,218.093 132.800 C 217.324 132.800,216.133 132.463,215.447 132.050 C 214.532 131.500,213.027 131.229,209.801 131.031 C 207.382 130.883,205.231 130.591,205.021 130.381 C 204.208 129.568,171.012 129.903,170.262 130.731 M213.915 132.333 C 215.078 132.810,216.482 133.200,217.036 133.200 C 217.965 133.200,219.076 133.659,222.200 135.336 C 222.860 135.690,224.160 136.336,225.090 136.771 C 227.017 137.674,230.776 141.215,231.702 143.000 C 232.044 143.660,232.791 144.636,233.362 145.170 C 233.947 145.717,234.405 146.589,234.413 147.170 C 234.419 147.736,234.866 149.100,235.406 150.200 C 236.893 153.233,237.265 161.665,236.045 164.715 C 235.580 165.878,235.200 167.294,235.200 167.862 C 235.200 170.667,227.349 179.749,224.076 180.730 C 223.207 180.990,222.272 181.473,221.998 181.802 C 221.725 182.131,221.204 182.400,220.840 182.400 C 220.476 182.400,219.823 182.645,219.389 182.945 C 218.585 183.500,217.511 183.765,213.600 184.373 C 212.390 184.561,210.860 184.947,210.200 185.231 C 208.032 186.163,171.198 186.286,170.524 185.363 C 169.964 184.598,169.712 133.217,170.260 131.788 C 170.711 130.612,210.943 131.115,213.915 132.333 " stroke="none" fill="#5cb4bc" fill-rule="evenodd"></path><path id="path3" d="M98.100 89.865 C 97.132 90.255,97.400 131.065,98.374 131.586 C 98.851 131.842,103.214 132.000,109.774 132.000 L 120.400 132.000 120.400 202.800 L 120.400 273.600 109.774 273.600 C 103.214 273.600,98.851 273.758,98.374 274.014 C 97.418 274.526,97.135 314.575,98.080 315.520 C 98.853 316.293,189.563 316.208,190.624 315.432 C 191.371 314.886,191.404 314.139,191.511 295.468 L 191.622 276.070 190.646 274.935 L 189.671 273.800 180.232 273.679 L 170.794 273.559 170.897 250.079 L 171.000 226.600 182.912 226.494 C 191.805 226.415,195.657 226.532,198.112 226.956 C 202.202 227.663,206.122 228.751,206.442 229.268 C 206.575 229.483,207.411 229.822,208.299 230.022 C 210.767 230.576,216.159 234.385,217.400 236.451 C 217.620 236.817,218.475 238.099,219.300 239.300 C 220.125 240.500,220.800 241.748,220.800 242.072 C 220.800 242.396,221.250 243.083,221.800 243.600 C 222.350 244.117,222.800 244.989,222.800 245.538 C 222.800 246.088,223.054 246.821,223.365 247.169 C 223.676 247.516,224.124 248.860,224.362 250.155 C 224.599 251.450,224.978 252.733,225.205 253.006 C 225.431 253.278,225.805 255.099,226.037 257.051 C 226.268 259.003,226.703 261.230,227.003 262.000 C 227.304 262.770,227.666 265.110,227.808 267.200 C 227.951 269.290,228.300 271.540,228.585 272.200 C 228.870 272.860,229.325 275.362,229.596 277.759 C 229.868 280.157,230.317 282.677,230.595 283.359 C 230.872 284.042,231.225 286.390,231.380 288.578 C 231.534 290.765,231.894 293.015,232.181 293.578 C 232.467 294.140,232.833 296.400,232.994 298.600 C 233.155 300.800,233.553 303.117,233.879 303.749 C 234.381 304.723,235.153 310.196,235.189 313.042 C 235.195 313.504,235.641 314.359,236.181 314.942 L 237.162 316.000 269.132 316.000 C 298.374 316.000,301.149 315.944,301.651 315.339 C 302.345 314.503,302.698 274.036,302.027 272.270 L 301.620 271.200 293.372 271.200 C 283.607 271.200,283.031 271.012,282.602 267.689 C 282.468 266.650,282.114 265.244,281.816 264.563 C 281.517 263.883,281.148 262.263,280.994 260.963 C 280.841 259.664,280.492 258.240,280.218 257.800 C 279.944 257.360,279.482 255.740,279.191 254.200 C 278.899 252.660,278.445 251.130,278.183 250.800 C 277.920 250.470,277.582 248.944,277.432 247.409 C 277.282 245.874,276.899 244.331,276.582 243.980 C 276.264 243.629,275.889 242.499,275.747 241.469 C 275.606 240.439,275.155 239.210,274.745 238.737 C 274.304 238.229,274.000 237.267,274.000 236.382 C 274.000 235.560,273.644 234.103,273.209 233.144 C 272.774 232.185,272.414 231.001,272.409 230.514 C 272.404 230.027,271.884 229.037,271.253 228.314 C 270.622 227.591,269.627 226.100,269.042 225.000 C 267.996 223.033,267.656 222.486,265.540 219.364 C 264.017 217.117,260.523 213.883,258.200 212.569 C 255.239 210.895,253.904 209.200,255.546 209.200 C 255.956 209.200,256.721 208.869,257.246 208.464 C 257.771 208.059,258.790 207.527,259.512 207.281 C 260.233 207.035,261.101 206.556,261.440 206.217 C 261.780 205.877,262.398 205.600,262.815 205.600 C 263.232 205.600,264.485 204.790,265.600 203.800 C 266.715 202.810,267.831 202.000,268.080 202.000 C 269.203 202.000,280.768 190.199,280.816 189.004 C 280.825 188.782,281.365 187.977,282.016 187.215 C 282.667 186.453,283.200 185.676,283.200 185.487 C 283.200 185.298,283.470 184.873,283.799 184.543 C 284.129 184.214,284.513 183.462,284.653 182.872 C 284.793 182.282,285.180 181.486,285.513 181.103 C 285.846 180.720,286.266 179.474,286.446 178.335 C 286.626 177.196,286.979 176.136,287.231 175.981 C 287.743 175.664,288.356 172.924,288.383 170.831 C 288.392 170.079,288.668 169.167,288.996 168.805 C 290.602 167.030,290.552 140.245,288.940 138.948 C 288.631 138.699,288.161 137.439,287.896 136.148 C 287.632 134.857,287.197 133.573,286.931 133.295 C 286.665 133.018,286.323 131.938,286.170 130.895 C 285.963 129.479,285.502 128.573,284.346 127.309 C 283.496 126.379,282.800 125.278,282.800 124.863 C 282.800 124.448,282.465 123.679,282.055 123.154 C 281.645 122.629,281.169 121.751,280.997 121.202 C 280.536 119.734,275.832 113.883,272.172 110.226 C 269.579 107.635,267.965 106.252,266.095 105.016 C 265.273 104.472,263.880 103.484,263.000 102.821 C 262.120 102.157,261.130 101.490,260.800 101.339 C 260.470 101.188,259.771 100.734,259.246 100.332 C 258.721 99.929,257.981 99.600,257.600 99.600 C 257.219 99.600,256.450 99.240,255.891 98.800 C 255.331 98.360,254.622 98.000,254.315 98.000 C 254.007 98.000,253.145 97.550,252.400 97.000 C 251.655 96.450,250.564 96.000,249.976 96.000 C 249.389 96.000,248.479 95.667,247.954 95.261 C 247.429 94.854,246.134 94.406,245.076 94.265 C 244.017 94.124,242.880 93.737,242.547 93.404 C 242.215 93.072,241.508 92.800,240.977 92.800 C 239.674 92.800,236.431 92.017,235.200 91.404 C 234.621 91.116,231.594 90.795,228.007 90.640 C 224.600 90.493,221.639 90.199,221.427 89.987 C 221.030 89.590,99.080 89.470,98.100 89.865 M226.162 91.201 C 232.304 91.499,234.276 91.726,234.793 92.194 C 235.162 92.527,235.851 92.800,236.326 92.800 C 237.502 92.800,240.820 93.599,241.800 94.119 C 242.240 94.352,243.478 94.683,244.551 94.855 C 245.624 95.027,246.808 95.445,247.182 95.784 C 247.557 96.123,248.227 96.400,248.671 96.400 C 249.513 96.400,261.155 102.102,261.566 102.716 C 261.695 102.908,263.330 104.121,265.200 105.410 C 268.586 107.745,277.200 116.108,277.200 117.060 C 277.200 117.335,277.425 117.704,277.700 117.880 C 278.547 118.422,279.821 120.472,281.514 124.020 C 282.406 125.889,283.510 127.757,283.968 128.171 C 284.426 128.585,284.800 129.236,284.800 129.618 C 284.800 130.000,285.156 131.097,285.591 132.056 C 286.026 133.015,286.386 134.148,286.391 134.574 C 286.396 134.999,286.772 136.117,287.228 137.057 C 289.470 141.690,290.415 165.688,288.451 168.157 C 288.257 168.401,287.974 169.680,287.821 171.000 C 287.669 172.320,287.225 174.030,286.835 174.800 C 286.445 175.570,286.000 177.001,285.846 177.980 C 285.691 178.959,285.408 179.949,285.217 180.180 C 285.026 180.411,284.203 181.860,283.388 183.400 C 282.573 184.940,281.777 186.290,281.619 186.400 C 281.461 186.510,280.646 187.680,279.808 189.000 C 278.125 191.651,268.370 201.600,267.454 201.600 C 267.136 201.600,266.094 202.255,265.138 203.055 C 264.182 203.855,262.680 204.843,261.800 205.250 C 260.920 205.657,259.930 206.143,259.600 206.331 C 259.270 206.518,258.010 207.176,256.800 207.792 C 253.164 209.643,253.229 210.579,257.155 212.887 C 260.230 214.694,266.800 221.302,266.800 222.587 C 266.800 222.865,267.135 223.521,267.545 224.046 C 267.955 224.571,268.424 225.450,268.588 226.000 C 268.753 226.550,269.494 227.634,270.237 228.410 C 271.207 229.423,271.699 230.415,271.988 231.934 C 272.208 233.097,272.661 234.437,272.994 234.913 C 273.327 235.389,273.600 236.345,273.600 237.038 C 273.600 237.731,273.940 239.086,274.355 240.049 C 274.770 241.012,275.330 242.790,275.599 244.000 C 275.869 245.210,276.316 246.650,276.593 247.200 C 276.870 247.750,277.222 249.349,277.374 250.754 C 277.527 252.158,277.887 253.688,278.174 254.154 C 278.461 254.619,278.918 256.170,279.190 257.600 C 279.461 259.030,279.915 260.740,280.197 261.400 C 280.479 262.060,280.838 263.675,280.995 264.989 C 281.152 266.304,281.532 267.739,281.840 268.178 C 282.148 268.618,282.400 269.264,282.400 269.613 C 282.400 271.659,282.939 271.787,292.467 272.000 L 301.400 272.200 301.515 292.400 C 301.578 303.510,301.524 313.185,301.396 313.900 L 301.164 315.200 269.405 315.200 L 237.645 315.200 237.023 314.311 C 236.680 313.822,236.400 312.944,236.400 312.360 C 236.400 311.776,236.130 310.651,235.800 309.862 C 235.470 309.072,235.200 307.690,235.200 306.790 C 235.200 305.890,235.035 304.400,234.833 303.477 C 234.148 300.347,233.643 297.410,233.171 293.800 C 232.911 291.820,232.475 289.480,232.201 288.600 C 231.927 287.720,231.580 285.424,231.431 283.499 C 231.281 281.573,230.897 279.374,230.579 278.611 C 230.261 277.849,229.996 276.545,229.992 275.713 C 229.983 273.984,229.036 268.306,228.654 267.687 C 228.514 267.460,228.211 265.413,227.981 263.137 C 227.751 260.862,227.313 258.100,227.007 257.000 C 226.702 255.900,226.270 254.190,226.049 253.200 C 225.828 252.210,225.346 250.410,224.979 249.200 C 224.611 247.990,224.217 246.460,224.101 245.800 C 223.986 245.140,223.286 243.924,222.546 243.099 C 221.806 242.273,221.200 241.363,221.200 241.077 C 221.200 240.606,220.770 239.931,218.503 236.842 C 216.132 233.610,211.056 229.600,209.337 229.600 C 208.920 229.600,208.208 229.340,207.755 229.023 C 204.181 226.520,200.165 225.959,184.213 225.735 C 171.978 225.563,170.989 225.600,170.513 226.251 C 169.850 227.158,169.756 272.796,170.414 274.026 C 170.804 274.755,171.337 274.800,179.634 274.800 C 186.745 274.800,188.667 274.917,189.620 275.410 L 190.800 276.021 190.800 294.556 C 190.800 312.703,190.783 313.114,189.971 314.146 L 189.142 315.200 143.995 315.200 C 108.316 315.200,98.779 315.095,98.524 314.700 C 98.009 313.905,97.890 276.552,98.399 275.601 C 98.812 274.830,99.231 274.800,109.600 274.800 C 119.840 274.800,120.392 274.762,120.786 274.026 C 121.280 273.103,121.368 132.483,120.874 131.707 C 120.642 131.340,117.796 131.186,109.792 131.107 L 99.023 131.000 98.518 130.000 C 97.864 128.709,97.768 92.781,98.414 91.574 C 98.884 90.696,209.145 90.375,226.162 91.201 M170.260 131.788 C 169.712 133.217,169.964 184.598,170.524 185.363 C 171.198 186.286,208.032 186.163,210.200 185.231 C 210.860 184.947,212.390 184.561,213.600 184.373 C 217.511 183.765,218.585 183.500,219.389 182.945 C 219.823 182.645,220.476 182.400,220.840 182.400 C 221.204 182.400,221.725 182.131,221.998 181.802 C 222.272 181.473,223.207 180.990,224.076 180.730 C 227.349 179.749,235.200 170.667,235.200 167.862 C 235.200 167.294,235.580 165.878,236.045 164.715 C 237.265 161.665,236.893 153.233,235.406 150.200 C 234.866 149.100,234.419 147.736,234.413 147.170 C 234.405 146.589,233.947 145.717,233.362 145.170 C 232.791 144.636,232.044 143.660,231.702 143.000 C 230.776 141.215,227.017 137.674,225.090 136.771 C 224.160 136.336,222.860 135.690,222.200 135.336 C 219.076 133.659,217.965 133.200,217.036 133.200 C 216.482 133.200,215.078 132.810,213.915 132.333 C 210.943 131.115,170.711 130.612,170.260 131.788 M211.941 132.736 C 212.458 133.031,214.069 133.440,215.520 133.646 C 216.971 133.851,218.449 134.283,218.805 134.605 C 219.161 134.927,220.071 135.305,220.826 135.445 C 221.582 135.584,222.398 135.945,222.641 136.245 C 222.884 136.546,223.731 137.063,224.525 137.394 C 226.427 138.189,231.200 142.673,231.200 143.665 C 231.200 144.090,231.650 144.855,232.200 145.365 C 232.750 145.875,233.200 146.683,233.200 147.162 C 233.200 147.641,233.572 148.535,234.026 149.150 C 234.568 149.883,234.989 151.354,235.250 153.433 C 236.069 159.941,236.096 161.296,235.447 163.375 C 235.100 164.489,234.714 166.240,234.589 167.267 C 234.463 168.294,234.100 169.351,233.780 169.616 C 233.461 169.881,233.193 170.301,233.184 170.549 C 233.175 170.797,232.635 171.623,231.984 172.385 C 231.333 173.147,230.800 173.981,230.800 174.238 C 230.800 174.496,230.440 174.801,230.000 174.916 C 229.560 175.031,229.200 175.400,229.200 175.736 C 229.200 176.071,228.840 176.460,228.400 176.600 C 227.960 176.740,227.600 177.012,227.600 177.206 C 227.600 177.665,223.476 180.400,222.784 180.400 C 222.491 180.400,221.870 180.759,221.403 181.197 C 220.918 181.653,219.708 182.104,218.577 182.251 C 217.490 182.392,216.330 182.730,216.000 183.002 C 215.670 183.274,213.330 183.713,210.800 183.977 C 208.270 184.241,205.570 184.632,204.800 184.845 C 203.966 185.077,196.856 185.187,187.200 185.117 L 171.000 185.000 170.897 158.476 L 170.794 131.953 190.897 132.076 C 206.785 132.174,211.197 132.312,211.941 132.736 " stroke="none" fill="#94ccd4" fill-rule="evenodd"></path></g></svg>